<svg width="140" height="33" viewBox="0 0 140 33" fill="none" xmlns="http://www.w3.org/2000/svg">
<g clip-path="url(#clip0_142_124)">
<path d="M50.7458 10.5493C48.2978 8.09417 45.8475 5.639 43.3971 3.18623L43.0893 2.87603C42.6757 2.46002 42.3751 2.15704 42.089 1.931L41.8341 1.729H34.2041L35.5338 3.27521C35.618 3.3738 35.7022 3.46037 35.7887 3.54934C35.8392 3.60224 35.8897 3.65515 35.9426 3.71045L35.9739 3.74412C38.7609 6.54556 41.4614 9.23398 44.9722 12.6967C44.7317 12.9203 44.5081 13.1512 44.2917 13.3748C44.1786 13.4927 44.0656 13.6105 43.9502 13.7259L42.5507 15.1254C39.754 17.9269 36.955 20.7259 34.1656 23.5322C34.0886 23.6091 34.0021 23.7101 33.9155 23.8111L32.4655 25.4631H40.1628L40.4274 25.2323C40.4706 25.1962 40.5115 25.1601 40.5548 25.1265C40.6269 25.0687 40.6991 25.0086 40.7736 24.9413C43.1206 22.8468 45.3449 20.5672 47.4971 18.3645C48.5527 17.2824 49.6421 16.1667 50.7314 15.087C51.4143 14.4112 51.775 13.6273 51.7774 12.8169C51.7798 12.0066 51.4239 11.2202 50.7482 10.5421L50.7458 10.5493Z" fill="#89C149"/>
<path d="M51.5081 17.9053C53.956 15.4501 56.4064 12.995 58.8568 10.5422L59.1646 10.232C59.5782 9.81598 59.8787 9.51299 60.1649 9.28695L60.4198 9.08496H68.0498L66.72 10.6312C66.6359 10.7298 66.5517 10.8163 66.4651 10.9053C66.4146 10.9582 66.3642 11.0111 66.3112 11.0664L66.28 11.1001C63.493 13.9015 60.7925 16.5899 57.2817 20.0527C57.5222 20.2763 57.7458 20.5072 57.9622 20.7308C58.0752 20.8486 58.1883 20.9664 58.3037 21.0819L59.7032 22.4814C62.4998 25.2828 65.2989 28.0819 68.0883 30.8881C68.1652 30.9651 68.2518 31.0661 68.3384 31.1671L69.7884 32.8191H62.091L61.8265 32.5882C61.7832 32.5522 61.7424 32.5161 61.6991 32.4824C61.6269 32.4247 61.5548 32.3646 61.4803 32.2973C59.1333 30.2028 56.909 27.9232 54.7568 25.7205C53.7011 24.6384 52.6118 23.5226 51.5225 22.4429C50.8396 21.7672 50.4789 20.9833 50.4765 20.1729C50.4741 19.3625 50.83 18.5762 51.5057 17.8981L51.5081 17.9053Z" fill="#7DACFA"/>
<path d="M14.3367 0H19.4105L33.6077 32.9584H26.9035L23.8303 25.4174H9.54414L6.56475 32.9584H0L14.3367 0ZM21.7839 20.3892L16.7101 6.98317L11.5424 20.3892H21.7839Z" fill="white"/>
<path d="M90.4686 21.4135V22.159C90.4686 22.4066 90.4517 22.6567 90.4229 22.9044H73.4315C73.494 23.7124 73.7032 24.4482 74.0591 25.1167C74.415 25.7852 74.8887 26.3575 75.4779 26.8384C76.067 27.3194 76.7355 27.6993 77.4785 27.9783C78.224 28.2572 78.9983 28.3967 79.8063 28.3967C81.2034 28.3967 82.3817 28.1394 83.3435 27.6296C84.3054 27.1174 85.0965 26.4128 85.7169 25.5111L89.4418 28.4905C87.2391 31.4698 84.0409 32.9583 79.852 32.9583C78.1134 32.9583 76.5167 32.6866 75.057 32.1431C73.5974 31.5997 72.3325 30.8326 71.2625 29.8395C70.1924 28.8463 69.3531 27.6272 68.7496 26.1844C68.1436 24.7416 67.843 23.104 67.843 21.274C67.843 19.4441 68.146 17.8378 68.7496 16.3637C69.3556 14.8896 70.1852 13.632 71.2408 12.5932C72.2965 11.5543 73.5445 10.7464 74.9873 10.1717C76.4301 9.59695 77.9907 9.31079 79.6668 9.31079C81.2178 9.31079 82.6534 9.56569 83.9736 10.0779C85.2913 10.5901 86.4335 11.35 87.3954 12.3599C88.3573 13.3699 89.1099 14.6251 89.6534 16.1304C90.1968 17.6358 90.4686 19.396 90.4686 21.4135ZM84.8825 18.9006C84.8825 18.1864 84.7815 17.5035 84.5795 16.8518C84.3775 16.2002 84.0601 15.6255 83.6249 15.1301C83.1896 14.6347 82.639 14.238 81.9729 13.9422C81.3044 13.6464 80.5228 13.4997 79.6211 13.4997C77.945 13.4997 76.5263 14.0047 75.3624 15.0123C74.1986 16.0222 73.5541 17.3159 73.4315 18.8982H84.8825V18.9006Z" fill="white"/>
<path d="M92.7362 21.041C92.7362 19.2711 93.0536 17.6672 93.6908 16.222C94.3257 14.7792 95.1889 13.5456 96.2734 12.5212C97.3604 11.4968 98.6469 10.7057 100.138 10.1478C101.626 9.58994 103.211 9.30859 104.887 9.30859C106.563 9.30859 108.145 9.58754 109.636 10.1478C111.125 10.7057 112.414 11.4968 113.501 12.5212C114.587 13.5456 115.448 14.7792 116.083 16.222C116.718 17.6648 117.038 19.2711 117.038 21.041C117.038 22.8108 116.718 24.4244 116.083 25.8816C115.446 27.3412 114.585 28.5893 113.501 29.6281C112.414 30.6693 111.127 31.4821 109.636 32.0712C108.145 32.6604 106.563 32.9561 104.887 32.9561C103.211 32.9561 101.629 32.6604 100.138 32.0712C98.6469 31.4821 97.3604 30.6669 96.2734 29.6281C95.1865 28.5893 94.3257 27.3388 93.6908 25.8816C93.0536 24.4244 92.7362 22.8084 92.7362 21.041ZM98.416 21.041C98.416 21.9091 98.5483 22.7796 98.8128 23.6476C99.0749 24.5157 99.4717 25.2924 100.001 25.9754C100.527 26.6583 101.196 27.2162 102.001 27.6514C102.807 28.0867 103.771 28.3031 104.887 28.3031C106.003 28.3031 106.967 28.0867 107.773 27.6514C108.578 27.2162 109.247 26.6583 109.773 25.9754C110.3 25.2924 110.697 24.5181 110.961 23.6476C111.223 22.7796 111.358 21.9091 111.358 21.041C111.358 20.1729 111.226 19.312 110.961 18.4584C110.697 17.6047 110.302 16.8376 109.773 16.1547C109.244 15.4718 108.578 14.9211 107.773 14.5027C106.965 14.0843 106.003 13.8751 104.887 13.8751C103.771 13.8751 102.807 14.0843 102.001 14.5027C101.193 14.9211 100.527 15.4742 100.001 16.1547C99.4717 16.8376 99.0773 17.6071 98.8128 18.4584C98.5483 19.312 98.416 20.1729 98.416 21.041Z" fill="white"/>
<path d="M119.426 10.6141H124.733V14.1995H124.827C125.322 13.0813 126.183 12.0978 127.409 11.2441C128.636 10.3905 130.086 9.96484 131.762 9.96484C133.219 9.96484 134.469 10.2197 135.508 10.7319C136.547 11.2441 137.401 11.9198 138.069 12.7567C138.735 13.5959 139.226 14.5578 139.536 15.6423C139.846 16.7292 140.002 17.845 140.002 18.9944V32.9607H134.416V20.5791C134.416 19.9274 134.371 19.2445 134.277 18.5303C134.183 17.8161 133.981 17.1741 133.671 16.5993C133.361 16.0246 132.933 15.5509 132.392 15.1806C131.848 14.8079 131.127 14.6227 130.227 14.6227C129.328 14.6227 128.551 14.8006 127.9 15.1589C127.248 15.5172 126.712 15.9741 126.293 16.532C125.875 17.0899 125.555 17.7343 125.339 18.463C125.122 19.1916 125.012 19.9298 125.012 20.6753V32.9655H119.426V10.6141Z" fill="white"/>
</g>
<defs>
<clipPath id="clip0_142_124">
<rect width="140" height="32.9584" fill="white"/>
</clipPath>
</defs>
</svg>
