<svg width="245" height="39" viewBox="0 0 245 39" fill="none" xmlns="http://www.w3.org/2000/svg">
<path d="M47.8808 8.86304H26.6125V30.1037H47.8808V8.86304Z" fill="#FF2C51"/>
<path d="M63.856 30.086L74.4919 8.86304H53.2237L63.856 30.086Z" fill="#00C66A"/>
<path d="M10.6324 8.86304H0V30.1037H10.6324C16.505 30.1037 21.2647 25.3501 21.2647 19.4852C21.2647 13.6202 16.505 8.86304 10.6324 8.86304Z" fill="#4B0082"/>
<path d="M110.983 30.0916V26.5681H113.782V12.357H110.983V8.8335H119.741C122.598 8.8335 124.774 9.55704 126.264 11.0041C127.754 12.4512 128.499 14.6015 128.499 17.4575V21.465C128.499 24.3184 127.754 26.4713 126.264 27.9184C124.774 29.3655 122.601 30.089 119.741 30.089H110.983V30.0916ZM117.794 26.4483H119.802C121.425 26.4483 122.608 26.0229 123.361 25.1719C124.111 24.321 124.486 23.1261 124.486 21.5873V17.3352C124.486 15.776 124.111 14.576 123.361 13.7378C122.611 12.8971 121.425 12.4767 119.802 12.4767H117.794V26.4458V26.4483Z" fill="#F4F4F4"/>
<path d="M138.344 30.5161C136.844 30.5161 135.52 30.1977 134.375 29.5607C133.23 28.9238 132.337 28.0219 131.699 26.8576C131.061 25.6933 130.742 24.3227 130.742 22.7431V22.3788C130.742 20.7992 131.056 19.4285 131.686 18.2642C132.314 17.0999 133.196 16.198 134.332 15.5611C135.467 14.9242 136.783 14.6057 138.286 14.6057C139.788 14.6057 141.053 14.9344 142.148 15.5917C143.242 16.249 144.094 17.1611 144.701 18.3254C145.309 19.4897 145.615 20.84 145.615 22.3788V23.6857H134.638C134.678 24.7176 135.064 25.5583 135.793 26.2054C136.523 26.8525 137.416 27.1761 138.469 27.1761C139.523 27.1761 140.334 26.9443 140.842 26.478C141.349 26.0118 141.735 25.4972 141.997 24.929L145.13 26.5697C144.847 27.0971 144.436 27.6678 143.898 28.2843C143.36 28.9009 142.645 29.4283 141.755 29.8639C140.862 30.2996 139.727 30.5161 138.349 30.5161H138.344ZM134.666 20.8298H141.719C141.638 19.9584 141.288 19.2604 140.671 18.7355C140.053 18.2082 139.247 17.9458 138.252 17.9458C137.258 17.9458 136.398 18.2082 135.788 18.7355C135.181 19.2629 134.806 19.961 134.663 20.8298H134.666Z" fill="#F4F4F4"/>
<path d="M151.27 30.0911L146.467 15.0291H150.541L154.038 27.2988H154.587L158.084 15.0291H162.158L157.355 30.0911H151.273H151.27Z" fill="#F4F4F4"/>
<path d="M171.746 30.5161C170.225 30.5161 168.868 30.2486 167.672 29.711C166.475 29.176 165.531 28.3556 164.843 27.2525C164.154 26.1493 163.809 24.7481 163.809 23.0462V21.622H165.756V23.0462C165.756 25.0105 166.317 26.4627 167.445 27.4028C168.57 28.3429 170.003 28.8142 171.748 28.8142C173.493 28.8142 174.871 28.404 175.822 27.5837C176.774 26.7633 177.251 25.7162 177.251 24.4398C177.251 23.5889 177.041 22.9061 176.628 22.3889C176.212 21.8717 175.636 21.459 174.896 21.1431C174.156 20.8297 173.299 20.552 172.327 20.3074L170.381 19.8208C169.225 19.5176 168.192 19.138 167.279 18.682C166.365 18.2259 165.646 17.6298 165.121 16.8909C164.593 16.1521 164.33 15.2044 164.33 14.0528C164.33 12.9012 164.628 11.8974 165.228 11.0465C165.825 10.1956 166.651 9.54337 167.705 9.08733C168.758 8.63129 169.985 8.40454 171.383 8.40454C172.781 8.40454 174.044 8.64657 175.169 9.13319C176.294 9.6198 177.187 10.3332 177.845 11.2733C178.503 12.2159 178.832 13.3929 178.832 14.812V16.9674H176.886V14.812C176.886 13.6987 176.644 12.7968 176.156 12.1089C175.669 11.421 175.011 10.914 174.179 10.5905C173.348 10.2669 172.416 10.1039 171.381 10.1039C169.901 10.1039 168.679 10.4427 167.718 11.1204C166.753 11.7981 166.274 12.7764 166.274 14.0503C166.274 14.9012 166.47 15.5789 166.865 16.0859C167.261 16.5929 167.817 16.998 168.539 17.3011C169.258 17.6043 170.105 17.8769 171.077 18.1215L173.024 18.6081C174.138 18.8705 175.161 19.2196 176.095 19.6552C177.026 20.0909 177.776 20.687 178.345 21.4462C178.911 22.2055 179.197 23.2016 179.197 24.4373C179.197 25.6729 178.888 26.7455 178.269 27.6576C177.651 28.5696 176.784 29.2728 175.669 29.7671C174.554 30.2639 173.246 30.511 171.746 30.511V30.5161Z" fill="#F4F4F4"/>
<path d="M186.597 30.0903C185.807 30.0903 185.215 29.889 184.819 29.4839C184.424 29.0788 184.227 28.5132 184.227 27.782V16.9721H181.766V15.3314H184.227V9.80542H186.051V15.3314H191.22V16.9721H186.051V27.54C186.051 28.1464 186.355 28.4521 186.965 28.4521H191.222V30.0928H186.6L186.597 30.0903Z" fill="#F4F4F4"/>
<path d="M240.375 30.0905C239.584 30.0905 238.992 29.8892 238.597 29.4841C238.202 29.0791 238.005 28.5135 238.005 27.7823V16.9724H235.543V15.3316H238.005V9.80566H239.829V15.3316H244.997V16.9724H239.829V27.5402C239.829 28.1466 240.133 28.4523 240.742 28.4523H245V30.093H240.378L240.375 30.0905Z" fill="#F4F4F4"/>
<path d="M194.29 30.091V15.3321H196.052V17.1843H196.417C196.7 16.5168 197.121 16.0302 197.68 15.727C198.236 15.4239 199.011 15.271 200.006 15.271H200.654V16.9703H199.795C198.68 16.9703 197.787 17.2837 197.119 17.913C196.45 18.5397 196.116 19.5231 196.116 20.8581V30.091H194.292H194.29Z" fill="#F4F4F4"/>
<path d="M209.09 30.3941C208.036 30.3941 207.057 30.1699 206.156 29.7266C205.253 29.2807 204.534 28.6081 203.998 27.7062C203.46 26.8069 203.192 25.6757 203.192 24.3203V15.332H205.016V24.2006C205.016 25.8006 205.421 26.9598 206.233 27.6782C207.044 28.3967 208.128 28.7559 209.485 28.7559C211.006 28.7559 212.273 28.254 213.286 27.2527C214.299 26.2515 214.807 24.7382 214.807 22.7127V15.3346H216.631V30.0934H214.868V27.3597H214.503C214.138 28.1495 213.539 28.8527 212.71 29.4692C211.878 30.0883 210.671 30.3966 209.092 30.3966L209.09 30.3941Z" fill="#F4F4F4"/>
<path d="M226.998 30.516C225.559 30.516 224.276 30.2078 223.151 29.5887C222.026 28.9696 221.138 28.0855 220.49 26.9314C219.842 25.7773 219.518 24.4219 219.518 22.8627V22.5596C219.518 20.98 219.842 19.6195 220.49 18.4756C221.138 17.3317 222.026 16.4502 223.151 15.8336C224.276 15.2171 225.559 14.9062 226.998 14.9062C228.436 14.9062 229.618 15.1738 230.6 15.7113C231.582 16.2489 232.352 16.947 232.911 17.8055C233.467 18.6667 233.819 19.5711 233.959 20.5239L232.166 20.8883C232.064 20.0985 231.811 19.3749 231.406 18.7176C231 18.0603 230.434 17.5329 229.702 17.138C228.972 16.7431 228.069 16.547 226.995 16.547C225.921 16.547 224.957 16.7941 224.107 17.2909C223.255 17.7877 222.582 18.4858 222.084 19.3851C221.587 20.287 221.34 21.3545 221.34 22.5901V22.8322C221.34 24.0678 221.587 25.1353 222.084 26.0372C222.582 26.9391 223.255 27.6371 224.107 28.1314C224.959 28.6282 225.921 28.8753 226.995 28.8753C228.618 28.8753 229.852 28.4549 230.704 27.6142C231.556 26.7735 232.082 25.7467 232.286 24.5315L234.079 24.8958C233.898 25.8486 233.518 26.7531 232.939 27.6142C232.362 28.4753 231.579 29.1734 230.597 29.7084C229.612 30.2434 228.414 30.5135 226.995 30.5135L226.998 30.516Z" fill="#F4F4F4"/>
<line x1="92.5876" y1="38.814" x2="92.5876" y2="5.33992e-05" stroke="#9F9B9B" stroke-width="0.3"/>
</svg>
